<svg xmlns="http://www.w3.org/2000/svg" width="20" height="22">
    <path fill-rule="evenodd" fill="#2E2E2E" d="M12.404 13.387c-.127-.42.023-.878.37-1.132l1.554-1.137a.965.965 0 0 1 1.37.253c.802.456.203 1.082-.233 1.406l-.97.711 1.894 6.291c.285.947-.777 1.712-1.538 1.108L9.979 17.23l-4.871 3.657c-.762.604-1.823-.161-1.538-1.108l1.902-6.316L.533 9.58c-.316-.59-.346-1.828.597-1.826l6.045.016L9.39 1.483c-.066-.958 1.245-.958 1.53 0l1.864 6.287 6.045-.016c.543-.001.984.453.985 1.015.001.561-.438 1.017-.981 1.019l-6.233.016c-.972 0-1.355-.291-1.482.046L9.979 5.248 8.841 9.85c-.127-.337-.51-.046-.943-.046L4.55 9.795l2.662 2.48c.33.259.467.704.343 1.112l-1.186 3.937 3.012-2.389a.955.955 0 0 1 1.197 0l3.012 2.389-1.186-3.937z"/>
</svg>
