<svg xmlns="http://www.w3.org/2000/svg" width="20" height="15">
    <path fill-rule="evenodd" fill="#3498E8" d="M2.99 6.207 1.71 7.484a.993.993 0 0 1-1.401.024C.83 7.129.94 6.504.285 6.112c.008-.008.016.848.024.768L2.29 4.113a.994.994 0 0 1 1.401 0l4.219 3.39 9.405-6.343c.392-.392.904-.336 1.232-.008l.99.987a.984.984 0 0 1-.03 1.425L7.622 14.425A.995.995 0 0 1 6.2 14.34l-3.284-3.819c-.356-.414-.308-1.038.324-1.393.199-.354 1.41-.307 1.181.107l2.949 3.044 8.268-7.859-8.154 5.174c.436.248-.904.192-1.232-.135L2.99 6.207z"/>
</svg>
